# xmcd
#
# Track frame offsets:
#	150
#	23794
#	47596
#	68648
#	92220
#	111781
#	135604
#	157653
#	178259
#	198704
#	230188
#	267283
#	283455
#	299891
#
# Disc length: 4180 seconds
#
# Revision: 0
# Processed by: cddbd v1.5.2PL0 Copyright (c) Steve Scherf et al.
# Submitted via: EasyCDDAExtractor 2010.6.0.0
#
DISCID=dc10520e
DTITLE=Delegation - Eau De Vie
DYEAR=2012
DGENRE=Disco
TTITLE0=Heartache No. 9
TTITLE1=Sho 'Nuff Sold On You
TTITLE2=One More Step To Take
TTITLE3=Blue Girl
TTITLE4=Darlin' (I Think About You)
TTITLE5=You And I
TTITLE6=Stand Up (Reach For The Sky)
TTITLE7=Welcome To My World
TTITLE8=Put A Little Love On Me
TTITLE9=Heartache No. 9 (12" Special Remix Version)
TTITLE10=Put A Little Love On Me (12" Long Version)
TTITLE11=You And I (Single Version)
TTITLE12=Heartache No. 9 (Single Version)
TTITLE13=Put A Little Love On Me (Single Version)
EXTD=
EXTT0=
EXTT1=
EXTT2=
EXTT3=
EXTT4=
EXTT5=
EXTT6=
EXTT7=
EXTT8=
EXTT9=
EXTT10=
EXTT11=
EXTT12=
EXTT13=
PLAYORDER=
